# xmcd
#
# Track frame offsets:
#	150
#	15960
#	37942
#	66310
#	91122
#	113800
#	126745
#	145117
#	156245
#	163332
#	183830
#	213570
#	231275
#	266017
#
# Disc length: 3880 seconds
#
# Revision: 1
# Processed by: cddbd v1.4PL0 Copyright (c) Steve Scherf et al.
# Submitted via: audiograbber 1.80
#
DISCID=c30f260e
DTITLE=Groundhogs - Eccentric Man - Live at the Marquee
DYEAR=1900
DGENRE=
TTITLE0=Groundhog Blues
TTITLE1=Eccentric Man
TTITLE2=3744 James Road
TTITLE3=Split Part 1
TTITLE4=Garden
TTITLE5=Thank Christ For The Bomb
TTITLE6=Soldier
TTITLE7=Cherry Red
TTITLE8=Amazing Grace
TTITLE9=I Love You Misogyny
TTITLE10=Mistreated
TTITLE11=Me and The Devil
TTITLE12=Split Part 2
TTITLE13=Down In The Bottom
EXTD=
EXTT0=
EXTT1=
EXTT2=
EXTT3=
EXTT4=
EXTT5=
EXTT6=
EXTT7=
EXTT8=
EXTT9=
EXTT10=
EXTT11=
EXTT12=
EXTT13=
PLAYORDER=
